<svg id="Layer_1" xmlns="http://www.w3.org/2000/svg" viewBox="0 0 180 70" width="125" height="48.63813229571985"><g transform="translate(5, 5)"><path fill="#0a5c36" d="M33.72,43.5l25.08-25.08c-1.53-3.57-3.72-6.79-6.41-9.51l-18.67,18.67v15.92Z"></path><path fill="#0a5c36" d="M47.6,4.97c-4.05-2.7-8.78-4.46-13.87-4.97v18.85l13.87-13.87Z"></path><path fill="#0a5c36" d="M0,30.48c0,15.88,12.08,28.93,27.54,30.48V0C12.08,1.55,0,14.6,0,30.48Z"></path><path fill="#0a5c36" d="M33.72,52.24v8.72c15.47-1.55,27.54-14.6,27.54-30.48,0-1.81-.17-3.59-.47-5.32l-27.07,27.07Z"></path></g><g transform="translate(75, -10) scale(0.4)"><path fill="#0a5c36" d="M33.52,147.63c-18.36,0-33.52-14.31-33.52-32.86s15.16-33.05,33.52-33.05,33.52,14.41,33.52,33.05-15.25,32.86-33.52,32.86ZM33.52,88.78c-14.41,0-25.61,11.77-25.61,25.99s11.21,25.9,25.61,25.9,25.52-11.68,25.52-25.9-11.11-25.99-25.52-25.99Z"></path><path fill="#0a5c36" d="M82.72,114.3c-1.22,2.26-1.7,4.33-1.7,8.1v23.45c0,.47-.38.85-.94.85h-5.08c-.47,0-.85-.38-.85-.85v-23.92c0-5.37.94-8.76,3.01-11.86,2.92-4.43,8.19-6.78,15.07-6.78,4.42,0,8.29,1.22,11.3,3.48.47.38.56.85.38,1.22l-1.98,3.96c-.19.38-.75.47-1.32.19-2.35-1.69-4.99-2.82-8.38-2.82-4.61,0-8,1.98-9.51,4.99Z"></path><path fill="#0a5c36" d="M123.5,126.93l-6.03,5.46v13.37c0,.47-.38.85-.85.85h-5.09c-.47,0-.94-.38-.94-.85v-62.34c0-.47.47-.94.94-.94h5.09c.47,0,.85.47.85.94v41.43l20.72-19.96c.56-.56.94-.85,1.79-.85h5.84c1.13,0,1.22.94.56,1.6l-18.17,16.86,19.11,22.69c.5.58.47,1.41-.66,1.41h-5.84c-.85,0-1.2-.37-1.6-.85l-15.73-18.83Z"></path><path fill="#0a5c36" d="M156.17,82.72h5.09c.47,0,.85.47.85.94v62.34c0,.47-.38.85-.85.85h-5.09c-.47,0-.94-.38-.94-.85v-62.34c0-.47.47-.94.94-.94Z"></path><path fill="#0a5c36" d="M199.28,159.02c2.35-2.64,3.3-6.12,3.3-10.92v-8.85c-1.41,2.82-3.39,4.9-5.84,6.4-2.54,1.32-5.46,2.07-9.14,2.07-4.9,0-10.17-1.22-13.47-5.08-2.54-2.92-3.86-7.25-3.86-13v-24.48c0-.47.38-.94.85-.94h5.09c.56,0,.94.47.94.94v23.17c0,4.14.56,7.63,2.54,10.17,2.07,2.64,5.46,3.58,9.32,3.58,4.8,0,8.57-1.88,11.02-5.65,1.79-2.92,2.54-6.59,2.54-9.98v-21.28c0-.47.38-.94.94-.94h5.08c.47,0,.85.47.85.94v42.56c0,6.31-1.32,10.83-4.52,14.5-3.58,4.33-9.6,6.4-15.91,6.4s-12.81-2.07-16.57-4.61c-.47-.38-.66-.75-.47-1.22l1.98-3.67c.28-.47.75-.66,1.41-.19,3.48,2.26,8.1,4.05,13.28,4.05,4.61,0,8.38-1.41,10.64-3.95Z"></path><path fill="#0a5c36" d="M240.22,135.88c0-3.58-2.64-5.18-6.03-6.69-2.73-1.22-6.87-2.35-10.26-3.95-4.05-1.88-6.97-5.09-6.97-10.26,0-7.16,5.56-11.49,15.54-11.49,5.84,0,10.36,1.51,13.18,3.11.66.38.66.75.47,1.22l-1.88,3.86c-.28.56-.66.66-1.22.28-3.2-1.79-6.78-2.73-10.26-2.73-5.84,0-8.66,1.98-8.66,5.74,0,3.11,2.35,4.52,5.18,5.74,3.2,1.41,7.44,2.54,10.26,3.96,4.8,2.26,7.82,5.56,7.82,10.64,0,7.72-6.12,12.52-15.73,12.52-6.97,0-11.86-1.88-14.69-3.58-.57-.28-.66-.66-.38-1.13l1.88-3.86c.28-.56.66-.75,1.22-.38,3.2,1.98,7.06,3.39,11.68,3.39,5.55,0,8.85-1.88,8.85-6.4Z"></path></g></svg>
